<svg viewBox="0 0 243 87" xmlns="http://www.w3.org/2000/svg" xmlns:xlink="http://www.w3.org/1999/xlink"><linearGradient id="a" x1="87.294101%" x2="9.330812%" y1="15.494753%" y2="93.161498%"><stop offset="0" stop-color="#fff44f"/><stop offset=".05" stop-color="#fff44f"/><stop offset=".11" stop-color="#ffe847"/><stop offset=".23" stop-color="#ffc830"/><stop offset=".37" stop-color="#ff980e"/><stop offset=".4" stop-color="#ff8b16"/><stop offset=".46" stop-color="#ff672a"/><stop offset=".53" stop-color="#ff3647"/><stop offset=".71" stop-color="#e31587"/><stop offset="1" stop-color="#e31587"/></linearGradient><radialGradient id="b" cx="86.531643%" cy="-12.747763%" gradientTransform="matrix(.812678 0 0 1 .162093 0)" r="128.431326%"><stop offset="0" stop-color="#ffbd4f"/><stop offset=".13" stop-color="#ffbd4f"/><stop offset=".19" stop-color="#ffac31"/><stop offset=".25" stop-color="#ff9d17"/><stop offset=".28" stop-color="#ff980e"/><stop offset=".4" stop-color="#ff563b"/><stop offset=".47" stop-color="#ff3750"/><stop offset=".71" stop-color="#f5156c"/><stop offset=".78" stop-color="#eb0878"/><stop offset=".86" stop-color="#e50080"/><stop offset="1" stop-color="#e50080"/></radialGradient><radialGradient id="c" cx="47.779191%" cy="39.705625%" gradientTransform="matrix(.812678 0 0 1 .089501 0)" r="128.431326%"><stop offset="0" stop-color="#960e18"/><stop offset=".3" stop-color="#960e18"/><stop offset=".35" stop-color="#b11927" stop-opacity=".74"/><stop offset=".44" stop-color="#db293d" stop-opacity=".34"/><stop offset=".5" stop-color="#f5334b" stop-opacity=".09"/><stop offset=".53" stop-color="#ff3750" stop-opacity="0"/><stop offset="1" stop-color="#ff3750" stop-opacity="0"/></radialGradient><radialGradient id="d" cx="51.455632%" cy="-28.519821%" gradientTransform="matrix(1 0 0 .588871 0 -.117253)" r="314.965291%"><stop offset="0" stop-color="#fff44f"/><stop offset=".13" stop-color="#fff44f"/><stop offset=".25" stop-color="#ffdc3e"/><stop offset=".51" stop-color="#ff9d12"/><stop offset="1" stop-color="#ff980e"/></radialGradient><radialGradient id="e" cx="19.318578%" cy="110.06288%" gradientTransform="matrix(1 0 0 .91217 0 .096668)" r="111.740444%"><stop offset="0" stop-color="#3a8ee6"/><stop offset=".35" stop-color="#3a8ee6"/><stop offset=".47" stop-color="#5c79f0"/><stop offset=".67" stop-color="#9059ff"/><stop offset="1" stop-color="#c139e6"/></radialGradient><radialGradient id="f" cx="56.811316%" cy="36.046448%" gradientTransform="matrix(.97199563 -.21435898 .23499894 .88662525 -.068799 .162648)" r="59.254362%"><stop offset="0" stop-color="#9059ff" stop-opacity="0"/><stop offset=".21" stop-color="#9059ff" stop-opacity="0"/><stop offset=".28" stop-color="#8c4ff3" stop-opacity=".06"/><stop offset=".75" stop-color="#7716a8" stop-opacity=".45"/><stop offset=".98" stop-color="#6e008b" stop-opacity=".6"/><stop offset="1" stop-color="#6e008b" stop-opacity=".6"/></radialGradient><radialGradient id="g" cx="208.497563%" cy="-99.419403%" gradientTransform="matrix(1 0 0 .996305 0 -.003674)" r="293.282475%"><stop offset="0" stop-color="#ffe226"/><stop offset=".12" stop-color="#ffdb27"/><stop offset=".29" stop-color="#ffc82a"/><stop offset=".5" stop-color="#ffa930"/><stop offset=".73" stop-color="#ff7e37"/><stop offset=".79" stop-color="#ff7139"/><stop offset="1" stop-color="#ff7139"/></radialGradient><radialGradient id="h" cx="79.697775%" cy="-40.924947%" gradientTransform="matrix(.839454 0 0 1 .127952 0)" r="193.848967%"><stop offset="0" stop-color="#fff44f"/><stop offset=".11" stop-color="#fff44f"/><stop offset=".46" stop-color="#ff980e"/><stop offset=".62" stop-color="#ff5634"/><stop offset=".72" stop-color="#ff3647"/><stop offset=".9" stop-color="#e31587"/><stop offset="1" stop-color="#e31587"/></radialGradient><radialGradient id="i" cx="7.991329%" cy="-10.366933%" gradientTransform="matrix(.10494492 .47077994 -.99447804 .04968029 -.03157 -.13614)" r="348.796223%"><stop offset="0" stop-color="#fff44f"/><stop offset=".06" stop-color="#ffe847"/><stop offset=".17" stop-color="#ffc830"/><stop offset=".3" stop-color="#ff980e"/><stop offset=".36" stop-color="#ff8b16"/><stop offset=".46" stop-color="#ff672a"/><stop offset=".57" stop-color="#ff3647"/><stop offset=".74" stop-color="#e31587"/><stop offset="1" stop-color="#e31587"/></radialGradient><radialGradient id="j" cx="17.542808%" cy="-42.106115%" gradientTransform="matrix(.981484 0 0 1 .003248 0)" r="238.662025%"><stop offset="0" stop-color="#fff44f"/><stop offset=".14" stop-color="#fff44f"/><stop offset=".48" stop-color="#ff980e"/><stop offset=".59" stop-color="#ff5634"/><stop offset=".66" stop-color="#ff3647"/><stop offset=".9" stop-color="#e31587"/><stop offset="1" stop-color="#e31587"/></radialGradient><radialGradient id="k" cx="156.177083%" cy="-45.104229%" gradientTransform="matrix(.895501 0 0 1 .163204 0)" r="312.868028%"><stop offset="0" stop-color="#fff44f"/><stop offset=".09" stop-color="#fff44f"/><stop offset=".23" stop-color="#ffe141"/><stop offset=".51" stop-color="#ffaf1e"/><stop offset=".63" stop-color="#ff980e"/><stop offset="1" stop-color="#ff980e"/></radialGradient><linearGradient id="l" x1="86.339291%" x2="20.025064%" y1="15.080389%" y2="83.569898%"><stop offset="0" stop-color="#fff44f" stop-opacity=".8"/><stop offset=".17" stop-color="#fff44f" stop-opacity=".8"/><stop offset=".27" stop-color="#fff44f" stop-opacity=".63"/><stop offset=".49" stop-color="#fff44f" stop-opacity=".22"/><stop offset=".6" stop-color="#fff44f" stop-opacity="0"/><stop offset="1" stop-color="#fff44f" stop-opacity="0"/></linearGradient><g fill="none" fill-rule="evenodd"><rect fill="#20123a" height="86" rx="20" stroke="#2e2343" width="241.684211" x=".657895" y=".5"/><g fill-rule="nonzero"><g fill="#fff" transform="translate(94 42)"><path d="m18.9734043 6.65782907v-4.72925764h-18.9734043v24.42857147h5.30824921v-9.6718653h12.37395929v-4.7292576h-12.37395929v-5.29819093z"/><path d="m25.2260975 5.58234393c1.6025114 0 2.9068812-1.27192647 2.9068812-2.82650326 0-1.44858291-1.3043698-2.75584067-2.9068812-2.75584067-1.6770469 0-2.9814166 1.30725776-2.9814166 2.75584067 0 1.55457679 1.3043697 2.82650326 2.9814166 2.82650326zm-2.7578104 20.77479897h5.4410854v-18.26627733h-5.4410854z"/><path d="m37.3816778 11.5203889v-3.38320283h-5.3231672v18.21995683h5.3231672v-8.7046989c0-3.4184445 2.5157433-5.6034297 6.4534286-5.6034297v-4.33472859c-2.8803439 0-5.213787 1.44490954-6.4534286 3.80610319z"/><path d="m55.7017717 22.4013731c-2.2129592 0-3.8454701-1.3546343-4.4621964-3.3509374h13.5317013c0-6.9514127-3.4464119-11.33614999-9.323451-11.33614999-5.477981 0-9.6499533 4.02825459-9.6499533 9.58938479 0 5.6680749 4.3533624 9.6963295 9.9401774 9.6963295 2.7571295 0 5.9858732-1.1407447 7.6546622-2.8518616l-3.3738559-3.3865857c-1.0157845.9625033-2.8296855 1.6398204-4.3170843 1.6398204zm-.036278-10.0884605c2.1404031 0 3.5189679 1.1763929 4.0268602 2.9944547h-8.3802226c.6892824-1.8537101 2.3580713-2.9944547 4.3533624-2.9944547z"/><path d="m74.9909343 6.89285714c0-1.21428571.792692-2.07142857 1.7655412-2.07142857.720629 0 1.4412581.25 1.8015726.60714286l1.2611008-3.17857143c-1.0809435-.96428571-2.7744218-1.60714286-4.2877428-1.60714286-3.2788622 0-5.5848751 2.32142857-5.5848751 5.64285715v1.60714285h-2.5582331v4.21428576h2.5582331v14.25h5.0444033v-14.25h4.0355227v-4.21428576h-4.0355227z"/><path d="m91.3045779 27c5.5020088 0 10.1049961-4.4203855 10.1049961-9.6606813 0-5.2402957-4.6029873-9.62503299-10.1049961-9.62503299-5.5379697 0-10.1769183 4.38473729-10.1769183 9.62503299 0 5.2402958 4.6389486 9.6606813 10.1769183 9.6606813zm0-4.3847373c-2.8049457 0-5.1424004-2.4240823-5.1424004-5.275944 0-2.8518616 2.3374547-5.2402957 5.1424004-5.2402957 2.7689848 0 5.1064395 2.3884341 5.1064395 5.2402957 0 2.8518617-2.3374547 5.275944-5.1064395 5.275944z"/><path d="m123 26.3571429-6.957566-9.5918763 6.627997-9.05098089h-5.63929l-3.808352 5.19259469-3.771733-5.19259469h-5.785765l6.664615 9.15915999-6.957566 9.4836972h5.639291l4.13792-5.6253109 4.101302 5.6253109z"/></g><g transform="translate(26 16)"><path d="m51.0788247 18.3791285c-1.1527922-2.7738206-3.4912352-5.7687527-5.3224223-6.7154936 1.3061327 2.5287496 2.2124847 5.244383 2.686882 8.0503777l.0047919.0444961c-2.9997241-7.4753507-8.0846055-10.49424227-12.2398599-17.05913356-.2101587-.33200962-.4203174-.6647038-.6249996-1.01588099-.117059-.20057488-.2108432-.38129765-.2923053-.54764474-.1725081-.33337873-.305312-.68660959-.3956734-1.05079334 0-.03491235-.0260131-.06434825-.0602409-.06845559-.0164293-.00479189-.0335432-.00479189-.0499726 0-.0034228 0-.0088992.006161-.0130065.00753012-.0041074.00136911-.0130066.00753011-.0191676.01026834l.0102683-.01779846c-6.6641519 3.90196876-8.9266092 11.12403372-9.131976 14.73848902-2.6622379.1827764-5.2081014 1.1637451-7.3042117 2.8142094-.2183733-.1855147-.447015-.3587073-.6845559-.5188934-.6044629-2.1159624-.630476-4.3558293-.0746166-6.4847983-2.4472874 1.1856509-4.6221216 2.8662357-6.3862222 4.9356482h-.012322c-1.0514779-1.3328303-.9775458-5.72767936-.9173049-6.64566885-.3107884.12527373-.60788567.28272159-.88581537.47028992-.92825783.66265013-1.79627474 1.40607783-2.59309784 2.22138393-.90840571.9207277-1.73808748 1.9160721-2.4801461 2.9757646v.0041074-.0047919c-1.7052288 2.4178515-2.91552367 5.1492296-3.5596908 8.0366865l-.0355969.1752463c-.04997259.2334336-.23001079 1.4026551-.26081581 1.6566253 0 .0198522-.00410734.0383352-.006161.0581873-.23206446 1.2068721-.37582121 2.429489-.43058568 3.6575823v.1369112c.02601313 14.5379141 11.9954734 26.4868377 26.5333875 26.4868377 12.8518529 0 23.9471353-9.3373428 26.1431907-22.0002582.0444961-.342278.0807776-.6811332.1204818-1.0268339.5462757-4.5167-.0451806-9.0984328-1.7209735-13.3283038zm-30.5791131 20.7694267c.1239047.0595564.2402792.1239046.3676066.1807228l.018483.0116374c-.1286965-.06161-.257393-.1259583-.3860896-.1923602z" fill="url(#a)"/><path d="m51.0788247 18.3791285c-1.1527922-2.7738206-3.4912352-5.7687527-5.3224223-6.7154936 1.3061327 2.5287496 2.2124847 5.244383 2.686882 8.0503777v.0253286l.0047919.0280667c2.0447685 5.850215 1.7483558 12.2706649-.8255745 17.907983-3.0407974 6.5245025-10.3984044 13.2119293-21.9194806 12.8833424-12.4452267-.3525463-23.41181253-9.5906284-25.45863474-21.6867316-.37308297-1.9078573 0-2.8751349.18756833-4.425654-.25602392 1.2041338-.39841155 2.4301735-.42647834 3.661005v.1369112c.02601312 14.5379141 11.99547345 26.4868378 26.53338755 26.4868378 12.8518529 0 23.9471353-9.3373428 26.1431907-22.0002583.0444961-.3422779.0807775-.6811331.1204818-1.0268338.5462756-4.5167-.0451807-9.0984328-1.7209736-13.3283038z" fill="url(#b)"/><path d="m51.0788247 18.3791285c-1.1527922-2.7738206-3.4912352-5.7687527-5.3224223-6.7154936 1.3061327 2.5287496 2.2124847 5.244383 2.686882 8.0503777v.0253286l.0047919.0280667c2.0447685 5.850215 1.7483558 12.2706649-.8255745 17.907983-3.0407974 6.5245025-10.3984044 13.2119293-21.9194806 12.8833424-12.4452267-.3525463-23.41181253-9.5906284-25.45863474-21.6867316-.37308297-1.9078573 0-2.8751349.18756833-4.425654-.25602392 1.2041338-.39841155 2.4301735-.42647834 3.661005v.1369112c.02601312 14.5379141 11.99547345 26.4868378 26.53338755 26.4868378 12.8518529 0 23.9471353-9.3373428 26.1431907-22.0002583.0444961-.3422779.0807775-.6811331.1204818-1.0268338.5462756-4.5167-.0451807-9.0984328-1.7209736-13.3283038z" fill="url(#c)"/><path d="m38.1817911 21.493858c.0575027.0403888.1108981.0807776.164978.1211664-.6667575-1.1815435-1.4957547-2.2638265-2.4644013-3.2139901-8.2488989-8.2488988-2.1611431-17.88060066-1.1349938-18.37348092l.0102684-.01506023c-6.6641519 3.90196875-8.9266092 11.12403375-9.131976 14.73848895.3094193-.0212212.6161003-.0472343.9323652-.0472343 4.8069516.0095838 9.2538269 2.6067889 11.6237595 6.7887411z" fill="url(#d)"/><path d="m26.5717227 23.1436378c-.0438116.6599119-2.3754091 2.9360603-3.1907152 2.9360603-7.5438062 0-8.7691613 4.5639343-8.7691613 4.5639343.3340632 3.843097 3.012046 7.0098527 6.249311 8.6801691.147864.0766703.2977818.1458104.4476995.2135815.2594467.1150054.519578.2211115.7790247.319003 1.1110342.3929351 2.2747793.6174695 3.4522155.6660729 13.2256204.6202077 15.7858596-15.8132418 6.2424654-20.5845965 2.2508199-.29299 4.5317603.2608158 6.3971751 1.5532574-2.3699326-4.1819522-6.8168078-6.7791573-11.6237595-6.7887411-.3148957 0-.6229459.0260131-.9323652.0472343-2.662238.1827765-5.2081014 1.1637451-7.3042117 2.8142094.4045726.342278.8611714.7995613 1.8229725 1.7476713 1.800382 1.7736844 6.4177117 3.6110325 6.4279801 3.8266676z" fill="url(#e)"/><path d="m26.5717227 23.1436378c-.0438116.6599119-2.3754091 2.9360603-3.1907152 2.9360603-7.5438062 0-8.7691613 4.5639343-8.7691613 4.5639343.3340632 3.843097 3.012046 7.0098527 6.249311 8.6801691.147864.0766703.2977818.1458104.4476995.2135815.2594467.1150054.519578.2211115.7790247.319003 1.1110342.3929351 2.2747793.6174695 3.4522155.6660729 13.2256204.6202077 15.7858596-15.8132418 6.2424654-20.5845965 2.2508199-.29299 4.5317603.2608158 6.3971751 1.5532574-2.3699326-4.1819522-6.8168078-6.7791573-11.6237595-6.7887411-.3148957 0-.6229459.0260131-.9323652.0472343-2.662238.1827765-5.2081014 1.1637451-7.3042117 2.8142094.4045726.342278.8611714.7995613 1.8229725 1.7476713 1.800382 1.7736844 6.4177117 3.6110325 6.4279801 3.8266676z" fill="url(#f)"/><path d="m17.0837776 16.6882754c.2149506.1369112.3922505.2560239.5476447.3634992-.6044629-2.1159624-.630476-4.3558293-.0746166-6.4847982-2.4472874 1.1856508-4.6221216 2.8662356-6.3862222 4.9356482.1293811-.0034228 3.9779545-.072563 5.9131941 1.1856508z" fill="url(#g)"/><path d="m.23959457 28.8733708c2.04750677 12.0961032 13.01340813 21.3376081 25.45863473 21.6867316 11.5210762.3258487 18.8800523-6.3622627 21.9194806-12.8833424 2.5739303-5.637318 2.870343-12.057768.8255745-17.9079829v-.0253286c0-.0198521-.0041074-.0314896 0-.0253286l.0047919.0444962c.9412644 6.1452585-2.184418 12.0961031-7.0714627 16.1281375l-.0150602.0342278c-9.5221729 7.7560186-18.6336122 4.6782551-20.4750677 3.4227796-.1286965-.06161-.257393-.1259583-.3860895-.1923602-5.551064-2.6533388-7.8450109-7.7080997-7.3521306-12.0481843-2.686882.0397043-5.15744432-1.5142377-6.28490793-3.9533104 2.96001981-1.8133886 6.65936003-1.9619373 9.75492193-.391566 3.1407425 1.4252454 6.7175472 1.566264 9.9602886.391566-.0102683-.2156351-4.627598-2.0536678-6.4279801-3.8266676-.961801-.94811-1.4183998-1.4047088-1.8229724-1.7476713-.2183733-.1855146-.447015-.3587073-.6845559-.5188934-.1574479-.1074753-.3347479-.2238498-.5476448-.3634992-1.9352395-1.2582138-5.7838129-1.1890736-5.9111403-1.1856508h-.0123221c-1.0514778-1.3328304-.9775458-5.72767942-.9173049-6.64566891-.31078838.12527373-.60788565.28272159-.88581535.47028991-.92825783.66265014-1.79627474 1.4060779-2.59309783 2.221384-.91182849.918674-1.74493305 1.9112801-2.49041445 2.968919v.0041073-.0047919c-1.7052288 2.4178516-2.91552367 5.1492297-3.55969079 8.0366866-.01300656.0540799-.95564007 4.1751065-.4908266 6.3122901z" fill="url(#h)"/><path d="m35.8816832 18.3996652c.9686466.9515327 1.7983284 2.0345002 2.4644013 3.2174128.1458104.1102135.2820371.2197425.397727.3258487 6.0151929 5.5449029 2.8634974 13.3830682 2.6286948 13.9375585 4.8863601-4.0258733 8.0093043-9.9808253 7.0714626-16.1281375-3.0010931-7.4821962-8.091451-10.50108783-12.2398598-17.06597912-.2101587-.33200963-.4203174-.6647038-.6249996-1.01588099-.1170591-.20057489-.2108432-.38129765-.2923054-.54764474-.1725081-.33337873-.3053119-.68660959-.3956733-1.05079334 0-.03491235-.0260131-.06434826-.0602409-.06845559-.0164294-.00479189-.0335433-.00479189-.0499726 0-.0034228 0-.0088992.006161-.0130066.00753011-.0041073.00136912-.0130065.00753012-.0191675.01026834-1.0261494.48671926-7.1125361 10.12458213 1.1363628 18.36663543z" fill="url(#i)"/><path d="m38.743127 21.9456649c-.11569-.1061062-.2519166-.2156351-.397727-.3258486-.0540799-.0403888-.1074753-.0807776-.164978-.1211664-1.8654149-1.2924416-4.1463552-1.8462474-6.3971751-1.5532574 9.5427096 4.7713548 6.9824704 21.2006969-6.2424654 20.5845966-1.1774362-.0486035-2.3411813-.2731379-3.4522156-.666073-.2594467-.0972069-.5195779-.2033131-.7790246-.319003-.1499177-.0684556-.2998355-.1369112-.4476996-.2135815l.018483.0116375c1.8441937 1.2588983 10.9528948 4.3346081 20.4750677-3.4227796l.0150602-.0342278c.2375409-.5544903 3.3892364-8.3926556-2.6286947-13.9375586z" fill="url(#j)"/><path d="m14.6125307 30.6395251s1.2246706-4.5639343 8.7691614-4.5639343c.8153061 0 3.1489572-2.2761485 3.1907151-2.9360604-3.2427414 1.174698-6.8195461 1.0336795-9.9602886-.391566-3.0955619-1.5703713-6.79490212-1.4218226-9.75492193.391566 1.12746361 2.4390728 3.59802593 3.9930147 6.28490793 3.9533105-.4915112 4.3380308 1.8017512 9.3921072 7.3521306 12.0481842.1239046.0595564.2402791.1239046.3676065.1807228-3.2400032-1.6737393-5.9152477-4.8391259-6.249311-8.6801691z" fill="url(#k)"/><path d="m51.0788247 18.3791285c-1.1527922-2.7738206-3.4912352-5.7687527-5.3224223-6.7154936 1.3061327 2.5287496 2.2124847 5.244383 2.686882 8.0503777l.0047919.0444961c-2.9997241-7.4753507-8.0846055-10.49424227-12.2398599-17.05913356-.2101587-.33200962-.4203174-.6647038-.6249996-1.01588099-.117059-.20057488-.2108432-.38129765-.2923053-.54764474-.1725081-.33337873-.305312-.68660959-.3956734-1.05079334 0-.03491235-.0260131-.06434825-.0602409-.06845559-.0164293-.00479189-.0335432-.00479189-.0499726 0-.0034228 0-.0088992.006161-.0130065.00753012-.0041074.00136911-.0130066.00753011-.0191676.01026834l.0102683-.01779846c-6.6641519 3.90196876-8.9266092 11.12403372-9.131976 14.73848902.3094193-.0212213.6161004-.0472344.9323652-.0472344 4.8069517.0095838 9.253827 2.606789 11.6237596 6.7887411-1.8654149-1.2924416-4.1463553-1.8462473-6.3971751-1.5532574 9.5427095 4.7713548 6.9824704 21.2006969-6.2424655 20.5845966-1.1774362-.0486035-2.3411812-.2731378-3.4522155-.6660729-.2594467-.097207-.5195779-.2033131-.7790246-.3190031-.1499178-.0684556-.2998355-.1369112-.4476996-.2135814l.018483.0116374c-.1286965-.06161-.257393-.1259583-.3860895-.1923602.1239046.0595564.2402791.1239046.3676065.1807228-3.2400032-1.6744238-5.9152477-4.8398104-6.249311-8.6801691 0 0 1.2246705-4.5639344 8.7691613-4.5639344.8153061 0 3.1489573-2.2761484 3.1907152-2.9360603-.0102684-.2156351-4.627598-2.0536678-6.4279801-3.8266676-.9618011-.94811-1.4183999-1.4047088-1.8229724-1.7476713-.2183734-.1855146-.4470151-.3587073-.684556-.5188934-.6044628-2.1159623-.630476-4.3558293-.0746166-6.4847982-2.4472874 1.1856508-4.6221215 2.8662356-6.3862222 4.9356482h-.012322c-1.0514779-1.3328304-.9775458-5.72767941-.9173049-6.64566891-.31078839.12527374-.60788566.2827216-.88581536.47028992-.92825783.66265014-1.79627474 1.40607789-2.59309784 2.22138399-.9084057.9207277-1.73808748 1.916072-2.4801461 2.9757646v.0041073-.0047919c-1.7052288 2.4178515-2.91552367 5.1492297-3.5596908 8.0366865l-.0355969.1752464c-.04997259.2334335-.27382237 1.4190844-.3059965 1.6737392-.20468222 1.223986-.3354324 2.4589249-.39156599 3.6986556v.1369112c.02601313 14.5379141 11.99547339 26.4868378 26.53338759 26.4868378 12.8518528 0 23.9471352-9.3373428 26.1431906-22.0002583.0444962-.3422779.0807776-.6811331.1204819-1.0268339.5462756-4.5166999-.0451807-9.0984327-1.7209736-13.3283038z" fill="url(#l)"/></g><g fill="#fff" transform="translate(95.191065 18.686364)"><path d="m4.84416282 14.3136364h-4.84416282v-13.67272731h4.88693182c1.37438003 0 2.55805553.2726089 3.5510265.81782671.99297097.5452178 1.75759718 1.32766446 2.29387868 2.34733997.5362816 1.01967552.8044223 2.23986114.8044223 3.66055686 0 1.42424243-.2683668 2.64797477-.8051003 3.67119697s-1.30492387 1.8083289-2.30457098 2.35532c-.9996471.5469912-2.19378884.8204868-3.5824252.8204868zm-1.95475186-2.4780984h1.83186922c.8581617 0 1.57942783-.1526645 2.16379839-.4579934s1.02499556-.779352 1.321875-1.42206919c.29687944-.64271721.44531916-1.47233147.44531916-2.48884278 0-1.01303415-.14887437-1.83955374-.44662309-2.47955877-.29774873-.64000503-.73748706-1.11135069-1.31921498-1.41403697-.58172792-.30268629-1.29986461-.45402943-2.15441007-.45402943h-1.84261363z"/><path d="m18.2498381 14.5112083c-1.0379306 0-1.9338715-.2209732-2.6878229-.6629195s-1.3356619-1.0596976-1.7451316-1.8532537c-.4094697-.7935562-.6142046-1.7173318-.6142046-2.77132683 0-1.05747218.2047349-1.98389041.6142046-2.7792547s.9911802-1.41401959 1.7451316-1.85596591 1.6498923-.66291948 2.6878229-.66291948 1.9338716.22097316 2.6878229.66291948c.7539514.44194632 1.335662 1.06060162 1.7451317 1.85596591s.6142045 1.72178252.6142045 2.7792547c0 1.05399503-.2047348 1.97777063-.6142045 2.77132683-.4094697.7935561-.9911803 1.4113074-1.7451317 1.8532537-.7539513.4419463-1.6498923.6629195-2.6878229.6629195zm.0160645-2.2004128c.468164 0 .861152-.1348615 1.1789639-.4045843.3178119-.2697229.5577182-.6382491.7197188-1.1055787.1620006-.4673295.243001-.99829097.243001-1.59288436 0-.59730558-.0810004-1.12984916-.243001-1.59763073-.1620006-.46778158-.4019069-.83742047-.7197188-1.10891668s-.7107999-.40724432-1.1789639-.40724432c-.4789433 0-.8799809.13574811-1.2031128.40724432-.323132.27149621-.5656983.6411351-.7276989 1.10891668-.1620006.46778157-.2430009 1.00032515-.2430009 1.59763073 0 .59459339.0810003 1.12555486.2430009 1.59288436.1620006.4673296.4045669.8358558.7276989 1.1055787.3231319.2697228.7241695.4045843 1.2031128.4045843z"/><path d="m26.9234367 14.3136364-2.7879129-10.25454549h2.8733466l1.5916326 6.88977269h.0907537l1.6611062-6.88977269h2.8199374l1.6823864 6.84710809h.0907537l1.559608-6.84710809h2.8733465l-2.7879128 10.25454549h-3.0068692l-1.7626043-6.45185994h-.1280984l-1.7626043 6.45185994z"/><path d="m43.7259288 8.38522727v5.92840913h-2.8413219v-10.25454549h2.7077992v1.81058904h.1174583c.2296313-.59820963.6112837-1.07178067 1.1449574-1.42071311.5336736-.34893244 1.1810502-.52339866 1.9421298-.52339866.7129557 0 1.3344797.15600253 1.8645718.46800759.5300922.31200506.9417873.75596813 1.2350853 1.33188921.2932979.57592107.4386256 1.26132035.4360184 2.05619784v6.53197358h-2.8413573v-6.02458722c.0026426-.62665275-.1578107-1.11712276-.4813599-1.47141002s-.7701723-.53143089-1.3398693-.53143089c-.3827651 0-.7203621.08299968-1.0127907.24899903-.2924287.16599935-.5200954.40545358-.6830001.7183627s-.2456783.69012821-.248321 1.13165727z"/><path d="m55.4171508.64090909v13.67272731h-2.8413219v-13.67272731z"/><path d="m62.3229195 14.5112083c-1.0379305 0-1.9338715-.2209732-2.6878229-.6629195s-1.3356619-1.0596976-1.7451316-1.8532537c-.4094697-.7935562-.6142046-1.7173318-.6142046-2.77132683 0-1.05747218.2047349-1.98389041.6142046-2.7792547s.9911802-1.41401959 1.7451316-1.85596591 1.6498924-.66291948 2.6878229-.66291948c1.0379306 0 1.9338716.22097316 2.687823.66291948.7539513.44194632 1.3356619 1.06060162 1.7451316 1.85596591s.6142045 1.72178252.6142045 2.7792547c0 1.05399503-.2047348 1.97777063-.6142045 2.77132683-.4094697.7935561-.9911803 1.4113074-1.7451316 1.8532537-.7539514.4419463-1.6498924.6629195-2.687823.6629195zm.0160645-2.2004128c.468164 0 .861152-.1348615 1.1789639-.4045843.317812-.2697229.5577182-.6382491.7197188-1.1055787.1620007-.4673295.243001-.99829097.243001-1.59288436 0-.59730558-.0810003-1.12984916-.243001-1.59763073-.1620006-.46778158-.4019068-.83742047-.7197188-1.10891668-.3178119-.27149621-.7107999-.40724432-1.1789639-.40724432-.4789433 0-.8799809.13574811-1.2031128.40724432-.323132.27149621-.5656982.6411351-.7276989 1.10891668-.1620006.46778157-.2430009 1.00032515-.2430009 1.59763073 0 .59459339.0810003 1.12555486.2430009 1.59288436.1620007.4673296.4045669.8358558.7276989 1.1055787.3231319.2697228.7241695.4045843 1.2031128.4045843z"/><path d="m72.1501792 14.5058882c-.6524532 0-1.2348244-.1141549-1.7471136-.3424649-.5122891-.22831-.9161954-.5685669-1.2117187-1.0207708-.2955234-.4522039-.443285-1.0161115-.443285-1.6917225 0-.5715051.1037061-1.0501876.3111183-1.4360474.2074123-.38585983.4913741-.69673481.8518855-.93262497.3605113-.23589015.7715284-.41482451 1.2330511-.53680308.4615227-.12197858.9464292-.20744703 1.4547196-.25640537.5937589-.05869436 1.0733281-.11585878 1.4387074-.17149325.3653794-.05563447.6308601-.13931219.7964422-.25103316s.2483732-.27707704.2483732-.49606822v-.03734464c0-.42372603-.1330707-.75130874-.3992121-.98274814-.2661414-.23143939-.6404571-.34715909-1.122947-.34715909-.5118371 0-.9193075.1119296-1.222411.3357888-.3031036.22385919-.5027444.50536961-.5989225.84453125l-2.6330056-.21363637c.1335228-.62310606.3958914-1.16276041.7871061-1.61896306.3912146-.45620266.8974883-.8078125 1.518821-1.05482955s1.3410167-.37052557 2.1590521-.37052557c.5723396 0 1.1193307.06698738 1.6409734.20096214s.9858602.34048295 1.3926525.61952459.7283595.63776227.9647017 1.07616189.3545133.96338038.3545133 1.57494229v6.91647731h-2.6971591v-1.420661h-.0801136c-.1655126.3186464-.3855817.5994788-.6602073.8424971-.2746257.2430183-.6062071.4321755-.9947444.5674716-.3885372.1352961-.8356297.2029441-1.3412775.2029441zm.8172008-1.9600719c.4174672 0 .786202-.0836777 1.1062045-.2510331.3200026-.1673555.5708097-.3939095.7524215-.679662.1816117-.2857526.2724176-.6075284.2724176-.9653276v-1.08956633c-.0854684.05605173-.2058649.10767009-.3611894.15485507-.1553245.04718499-.3280173.08946718-.5180786.12684659s-.3805572.07076009-.5714877.10014205c-.1909305.02938195-.3642841.05519982-.5200606.07745362-.3347109.0480543-.6269135.1257165-.876608.2329867-.2496944.1072702-.4437544.2510332-.5821799.4312889-.1384256.1802556-.2076383.4039062-.2076383.6709517 0 .3899281.1415376.6859208.4246127.8879783.2830751.2020574.6436039.3030861 1.0815862.3030861z"/><path d="m83.9108487 14.4791837c-.7797867 0-1.4841191-.2016228-2.1129972-.6048684s-1.127363-.9974217-1.4954546-1.7825284c-.3680915-.7851067-.5521373-1.7500344-.5521373-2.89478317 0-1.17319188.1893832-2.15056781.5681496-2.9321278.3787665-.78155998.8834928-1.3668346 1.5141791-1.75582386.6306862-.38898926 1.3216663-.58348389 2.0729403-.58348389.5715051 0 1.0499615.09680398 1.4353693.29041193.3854078.19360796.6969608.43349684.9346591.71966664s.4197273.56903631.5460871.84859952h.0854337v-5.14333718h2.8413219v13.67272731h-2.803873v-1.6396174h-.1228826c-.1317146.2830404-.3197417.5631947-.5640814.840463-.2443396.2772683-.55857.507369-.9426913.690302-.3841212.1829331-.8521288.2743997-1.4040227.2743997zm.9026345-2.264462c.4557158 0 .8435924-.1257339 1.1636297-.3772017.3200372-.2514678.5648463-.6039817.7344271-1.0575418.1695808-.45356.2543712-.98476484.2543712-1.59361456 0-.61065785-.0839037-1.14008937-.2517112-1.58829457-.1678074-.4482052-.4117124-.79492964-.7317149-1.04017334-.3200026-.2452437-.7096699-.36786555-1.1690019-.36786555-.4700418 0-.8650639.12618594-1.1850664.3785578s-.5621168.60354707-.7263428 1.05352561c-.164226.44997855-.246339.97139523-.246339 1.56425005 0 .59640151.0829997 1.12226896.248999 1.57760236.1659994.4553333.4090003.8109593.7290028 1.0668778.3200026.2559186.7132513.3838779 1.1797464.3838779z"/><path d="m101.947125 4.05909091v2.13636364h-6.3289769v-2.13636364zm-4.8816114 10.25454549v-10.99695272c0-.74237245.1459883-1.35880238.437965-1.84928977.2919766-.49048739.6916581-.85767489 1.1990445-1.1015625s1.0833074-.36583141 1.7277629-.36583141c.435271 0 .834726.03383271 1.198367.10149814.363641.06766542.633572.12820268.809794.18161177l-.502066 2.13093927c-.112103-.034702-.249608-.06740463-.412512-.09810791-.162905-.03070327-.329826-.04605491-.500763-.04605491-.416563 0-.706749.09657797-.870557.28973389-.1638091.19315592-.2457135.46331343-.2457135.81047252v10.94354363z"/><path d="m107.950286 14.5112083c-1.037931 0-1.933872-.2209732-2.687823-.6629195-.753952-.4419463-1.335662-1.0596976-1.745132-1.8532537-.40947-.7935562-.614204-1.7173318-.614204-2.77132683 0-1.05747218.204734-1.98389041.614204-2.7792547s.99118-1.41401959 1.745132-1.85596591c.753951-.44194632 1.649892-.66291948 2.687823-.66291948 1.03793 0 1.933871.22097316 2.687823.66291948.753951.44194632 1.335662 1.06060162 1.745131 1.85596591.40947.79536429.614205 1.72178252.614205 2.7792547 0 1.05399503-.204735 1.97777063-.614205 2.77132683-.409469.7935561-.99118 1.4113074-1.745131 1.8532537-.753952.4419463-1.649893.6629195-2.687823.6629195zm.016064-2.2004128c.468164 0 .861152-.1348615 1.178964-.4045843.317812-.2697229.557718-.6382491.719719-1.1055787.162001-.4673295.243001-.99829097.243001-1.59288436 0-.59730558-.081-1.12984916-.243001-1.59763073-.162001-.46778158-.401907-.83742047-.719719-1.10891668s-.7108-.40724432-1.178964-.40724432c-.478943 0-.879981.13574811-1.203113.40724432s-.565698.6411351-.727699 1.10891668c-.162.46778157-.243 1.00032515-.243 1.59763073 0 .59459339.081 1.12555486.243 1.59288436.162001.4673296.404567.8358558.727699 1.1055787.323132.2697228.72417.4045843 1.203113.4045843z"/><path d="m114.85611 14.3136364v-10.25454549h2.755784v1.78920454h.106818c.186932-.63555427.500502-1.11667073.940709-1.44334938.440208-.32667865.947386-.49001798 1.521533-.49001798.142425 0 .29575.00822347.459976.02467041s.308197.03979603.431915.07004727v2.52754351c-.130811-.04269946-.314161-.07917481-.550051-.10942605-.235891-.03025124-.453108-.04537687-.651654-.04537687-.415659 0-.787506.09012784-1.115541.27038353-.328034.18025568-.586404.43038478-.77511.75038729-.188705.32000252-.283057.69009344-.283057 1.11027277v5.80020645z"/></g></g></g></svg>