<svg viewBox="0 0 298 87" xmlns="http://www.w3.org/2000/svg" xmlns:xlink="http://www.w3.org/1999/xlink"><linearGradient id="a" x1="0%" x2="100.026361%" y1="50.012996%" y2="50.012996%"><stop offset="0" stop-color="#0c59a4"/><stop offset="1" stop-color="#114a8b"/></linearGradient><radialGradient id="b" cx="55.24614%" cy="50.926576%" gradientTransform="matrix(.863186 0 0 1 .075584 0)" r="61.975309%"><stop offset="0" stop-opacity="0"/><stop offset=".72" stop-opacity="0"/><stop offset=".95" stop-opacity=".19"/><stop offset="1" stop-opacity=".35"/></radialGradient><linearGradient id="c" x1="76.675166%" x2="33.226551%" y1="24.802746%" y2="83.179411%"><stop offset="0" stop-color="#1b9de2"/><stop offset=".16" stop-color="#1595df"/><stop offset=".67" stop-color="#0680d7"/><stop offset="1" stop-color="#0078d4"/></linearGradient><radialGradient id="d" cx="41.834845%" cy="72.588567%" gradientTransform="matrix(.14980496 -.80154874 .98871557 .12144643 -.362017 .973056)" r="85.121996%"><stop offset="0" stop-opacity="0"/><stop offset=".76" stop-opacity="0"/><stop offset=".95" stop-opacity=".2"/><stop offset="1" stop-opacity=".41"/></radialGradient><radialGradient id="e" cx="10.101908%" cy="27.789003%" gradientTransform="matrix(-.02661572 .99920096 -.6653929 -.03996804 .288614 .188058)" r="118.830871%"><stop offset="0" stop-color="#35c1f1"/><stop offset=".11" stop-color="#34c1ed"/><stop offset=".23" stop-color="#2fc2df"/><stop offset=".31" stop-color="#2bc3d2"/><stop offset=".67" stop-color="#36c752"/><stop offset="1" stop-color="#36c752"/></radialGradient><radialGradient id="f" cx="93.772265%" cy="45.402779%" gradientTransform="matrix(.186459 .96 -.639288 .28 1.053131 -.573314)" r="57.095067%"><stop offset="0" stop-color="#66eb6e"/><stop offset="1" stop-color="#66eb6e" stop-opacity="0"/></radialGradient><g fill="none" fill-rule="evenodd"><rect fill="#031e36" height="86" rx="20" stroke="#162c40" width="297" x=".5" y=".5"/><g fill-rule="nonzero"><g fill="#fff"><g transform="translate(97.203125 19.976562)"><path d="m0 18.0234375v-16.8046875h4.640625c5.921875 0 8.8828125 2.73046875 8.8828125 8.19140625 0 2.59374995-.8222656 4.67773435-2.4667969 6.25195315-1.64453122 1.5742187-3.8457031 2.3613281-6.6035156 2.3613281zm1.96875-15.0234375v13.2421875h2.5078125c2.203125 0 3.91796875-.5898437 5.14453125-1.7695313 1.22656245-1.1796874 1.83984375-2.8515624 1.83984375-5.01562495 0-4.3046875-2.2890625-6.45703125-6.8671875-6.45703125z"/><path d="m21.5859375 18.3046875c-1.7734375 0-3.1894531-.5605469-4.2480469-1.6816406-1.0585937-1.1210938-1.5878906-2.6074219-1.5878906-4.4589844 0-2.015625.5507812-3.58984375 1.6523438-4.72265625 1.1015624-1.1328125 2.5898437-1.69921875 4.4648437-1.69921875 1.7890625 0 3.1855469.55078125 4.1894531 1.65234375 1.0039063 1.1015625 1.5058594 2.62890625 1.5058594 4.58203125 0 1.9140625-.5410156 3.4472656-1.6230469 4.5996094-1.0820312 1.1523437-2.5332031 1.7285156-4.3535156 1.7285156zm.140625-10.9453125c-1.234375 0-2.2109375.41992188-2.9296875 1.25976562-.71875.83984376-1.078125 1.99804688-1.078125 3.47460938 0 1.421875.3632812 2.5429688 1.0898438 3.3632812.7265624.8203126 1.6992187 1.2304688 2.9179687 1.2304688 1.2421875 0 2.1972656-.4023438 2.8652344-1.2070312.6679687-.8046876 1.0019531-1.9492188 1.0019531-3.4335938 0-1.5-.3339844-2.65625-1.0019531-3.46875-.6679688-.8125-1.6230469-1.21875-2.8652344-1.21875z"/><path d="m45.75 6.0234375-3.5976562 12h-1.9921876l-2.4726562-8.58984375c-.09375-.328125-.15625-.69921875-.1875-1.11328125h-.046875c-.0234375.28125-.1054688.64453125-.2460938 1.08984375l-2.6835937 8.61328125h-1.921875l-3.6328125-12h2.015625l2.484375 9.0234375c.078125.2734375.1328125.6328125.1640625 1.078125h.09375c.0234375-.34375.09375-.7109375.2109375-1.1015625l2.765625-9h1.7578125l2.484375 9.046875c.078125.2890625.1367187.6484375.1757813 1.078125h.09375c.015625-.3046875.0820312-.6640625.1992187-1.078125l2.4375-9.046875z"/><path d="m57.9375 18.0234375h-1.921875v-6.84375c0-2.546875-.9296875-3.8203125-2.7890625-3.8203125-.9609375 0-1.7558594.36132812-2.3847656 1.08398438-.6289063.72265624-.9433594 1.63476562-.9433594 2.73632812v6.84375h-1.921875v-12h1.921875v1.9921875h.046875c.90625-1.515625 2.21875-2.2734375 3.9375-2.2734375 1.3125 0 2.3164063.42382812 3.0117187 1.27148438.6953126.84765624 1.0429688 2.07226562 1.0429688 3.67382812z"/><path d="m63.4804688 18.0234375h-1.921875v-17.765625h1.921875z"/><path d="m72.3867188 18.3046875c-1.7734376 0-3.1894532-.5605469-4.2480469-1.6816406-1.0585938-1.1210938-1.5878907-2.6074219-1.5878907-4.4589844 0-2.015625.5507813-3.58984375 1.6523438-4.72265625s2.5898438-1.69921875 4.4648438-1.69921875c1.7890624 0 3.1855468.55078125 4.1894531 1.65234375 1.0039062 1.1015625 1.5058593 2.62890625 1.5058593 4.58203125 0 1.9140625-.5410156 3.4472656-1.6230468 4.5996094-1.0820313 1.1523437-2.5332032 1.7285156-4.3535156 1.7285156zm.140625-10.9453125c-1.234375 0-2.2109376.41992188-2.9296876 1.25976562-.71875.83984376-1.078125 1.99804688-1.078125 3.47460938 0 1.421875.3632813 2.5429688 1.0898438 3.3632812.7265625.8203126 1.6992188 1.2304688 2.9179688 1.2304688 1.2421874 0 2.1972656-.4023438 2.8652343-1.2070312.6679688-.8046876 1.0019531-1.9492188 1.0019531-3.4335938 0-1.5-.3339843-2.65625-1.0019531-3.46875-.6679687-.8125-1.6230469-1.21875-2.8652343-1.21875z"/><path d="m89.7070312 18.0234375h-1.921875v-1.875h-.046875c-.8359374 1.4375-2.0664062 2.15625-3.6914062 2.15625-1.1953125 0-2.1308594-.3164063-2.8066406-.9492187-.6757813-.6328126-1.0136719-1.4726563-1.0136719-2.5195313 0-2.2421875 1.3203125-3.546875 3.9609375-3.9140625l3.5976562-.5039062c0-2.03906255-.8242187-3.0585938-2.4726562-3.0585938-1.4453125 0-2.75.4921875-3.9140625 1.4765625v-1.96875c1.1796875-.75 2.5390625-1.125 4.078125-1.125 2.8203125 0 4.2304687 1.4921875 4.2304687 4.4765625zm-1.921875-6.0703125-2.8945312.3984375c-.890625.125-1.5625.3457031-2.015625.6621094-.453125.3164062-.6796875.8769531-.6796875 1.6816406 0 .5859375.2089844 1.0644531.6269531 1.4355469.4179688.3710937.9746094.5566406 1.6699219.5566406.953125 0 1.7402344-.3339844 2.3613281-1.0019531.6210938-.6679688.9316406-1.5136719.9316406-2.5371094z"/><path d="m103.570312 18.0234375h-1.921874v-2.0390625h-.046876c-.890624 1.546875-2.2656245 2.3203125-4.1249995 2.3203125-1.5078125 0-2.7128906-.5371094-3.6152344-1.6113281-.9023437-1.0742188-1.3535156-2.5371094-1.3535156-4.3886719 0-1.984375.5-3.57421875 1.5-4.76953125s2.3320313-1.79296875 3.9960937-1.79296875c1.6484376 0 2.8476558.6484375 3.5976558 1.9453125h.046876v-7.4296875h1.921874zm-1.921874-5.4257813v-1.7695312c0-.96875-.320313-1.7890625-.960938-2.4609375s-1.453125-1.0078125-2.4375-1.0078125c-1.171875 0-2.09375.4296875-2.765625 1.2890625s-1.0078125 2.046875-1.0078125 3.5625c0 1.3828125.3222656 2.4746094.9667969 3.2753906.6445312.8007813 1.5097656 1.2011719 2.5957031 1.2011719 1.0703125 0 1.9394531-.3867188 2.6074215-1.1601562.667969-.7734376 1.001954-1.75 1.001954-2.9296876z"/><path d="m119.964844 1.9453125c-.375-.2109375-.800782-.31640625-1.277344-.31640625-1.34375 0-2.015625.84765625-2.015625 2.54296875v1.8515625h2.8125v1.640625h-2.8125v10.359375h-1.910156v-10.359375h-2.050781v-1.640625h2.050781v-1.9453125c0-1.2578125.363281-2.25195312 1.089843-2.98242188.726563-.73046874 1.632813-1.09570312 2.71875-1.09570312.585938 0 1.050782.0703125 1.394532.2109375z"/><path d="m126.5625 18.3046875c-1.773438 0-3.189453-.5605469-4.248047-1.6816406-1.058594-1.1210938-1.587891-2.6074219-1.587891-4.4589844 0-2.015625.550782-3.58984375 1.652344-4.72265625 1.101563-1.1328125 2.589844-1.69921875 4.464844-1.69921875 1.789062 0 3.185547.55078125 4.189453 1.65234375s1.505859 2.62890625 1.505859 4.58203125c0 1.9140625-.541015 3.4472656-1.623046 4.5996094-1.082032 1.1523437-2.533204 1.7285156-4.353516 1.7285156zm.140625-10.9453125c-1.234375 0-2.210937.41992188-2.929687 1.25976562-.71875.83984376-1.078126 1.99804688-1.078126 3.47460938 0 1.421875.363282 2.5429688 1.089844 3.3632812.726563.8203126 1.699219 1.2304688 2.917969 1.2304688 1.242187 0 2.197266-.4023438 2.865234-1.2070312.667969-.8046876 1.001953-1.9492188 1.001953-3.4335938 0-1.5-.333984-2.65625-1.001953-3.46875-.667968-.8125-1.623047-1.21875-2.865234-1.21875z"/><path d="m141.867188 7.96875c-.335938-.2578125-.820313-.38671875-1.453126-.38671875-.820312 0-1.505859.38671875-2.05664 1.16015625s-.826172 1.828125-.826172 3.1640625v6.1171875h-1.921875v-12h1.921875v2.47265625h.046875c.273437-.84375.691406-1.50195313 1.253906-1.97460937.5625-.47265626 1.191407-.70898438 1.886719-.70898438.5 0 .882812.0546875 1.148438.1640625z"/></g><g transform="translate(96.733398 46.975585)"><path d="m19.9462891 18.7988281h-3.894043v-10.47363279c0-1.13118489.0488281-2.38037109.1464844-3.74755859h-.0976563c-.2034505 1.07421875-.386556 1.84733073-.5493164 2.31933594l-4.1015625 11.90185544h-3.22265624l-4.17480468-11.77978513c-.1139323-.31738281-.29703777-1.1311849-.54931641-2.44140625h-.10986328c.10579427 1.72526042.1586914 3.23893229.1586914 4.54101562v9.68017576h-3.55224609v-17.50488279h5.77392578l3.57666016 10.37597659c.28483073.8300781.49235026 1.6642252.62255859 2.5024414h.07324217c.2197266-.9684245.4516602-1.8107097.6958008-2.5268555l3.5766602-10.35156249h5.6274414z"/><path d="m25.5004883 4.32128906c-.6510417 0-1.1840821-.19327799-1.5991211-.57983398-.4150391-.38655599-.6225586-.8605957-.6225586-1.42211914 0-.57779948.2075195-1.04980469.6225586-1.41601563.415039-.36621093.9480794-.5493164 1.5991211-.5493164.6591797 0 1.1942545.18310547 1.6052246.5493164.41097.36621094.6164551.83821615.6164551 1.41601563 0 .5859375-.2054851 1.06608073-.6164551 1.44042968-.4109701.37434896-.9460449.56152344-1.6052246.56152344zm1.9042969 14.47753904h-3.8574219v-12.49999998h3.8574219z"/><path d="m40.1245117 18.347168c-.8707682.5045573-2.1280924.7568359-3.7719726.7568359-1.920573 0-3.4749349-.5818685-4.663086-1.7456055-1.188151-1.1637369-1.7822265-2.6652018-1.7822265-4.5043945 0-2.1240234.6368001-3.79842122 1.9104004-5.02319335 1.2736002-1.22477214 2.9764811-1.83715821 5.1086425-1.83715821 1.4729818 0 2.5390625.1953125 3.1982422.5859375v3.27148438c-.805664-.60221354-1.7049153-.90332031-2.6977539-.90332031-1.1067708 0-1.9836426.32348632-2.6306152.97045898-.6469727.64697261-.970459 1.54012041-.970459 2.67944331 0 1.1067709.3092448 1.9755046.9277344 2.6062012s1.4689127.9460449 2.5512695.9460449c.9602865 0 1.9002279-.3011067 2.8198242-.9033203z"/><path d="m50.8056641 9.77783203c-.4638672-.25227864-1.0050456-.37841797-1.6235352-.37841797-.8382161 0-1.4933268.30721029-1.965332.92163084-.4720052.6144206-.7080078 1.4506022-.7080078 2.5085449v5.9692383h-3.8574219v-12.49999998h3.8574219v2.31933594h.0488281c.6103516-1.69270833 1.7089844-2.5390625 3.2958984-2.5390625.4069011 0 .7242839.04882813.9521485.14648438z"/><path d="m58.4594727 19.1040039c-2.0833334 0-3.7211101-.583903-4.9133301-1.751709-1.1922201-1.167806-1.7883301-2.7526855-1.7883301-4.7546387 0-2.0670572.6184896-3.68448888 1.8554687-4.85229487 1.2369792-1.16780599 2.9093425-1.75170899 5.0170899-1.75170899 2.0751953 0 3.7027995.583903 4.8828125 1.75170899s1.7700195 2.71199547 1.7700195 4.63256837c0 2.0751953-.608317 3.7150065-1.8249511 4.9194336-1.2166342 1.2044271-2.8828939 1.8066406-4.9987793 1.8066406zm.0976562-10.15624999c-.9114583 0-1.6194661.3133138-2.1240234.9399414-.5045573.62662759-.756836 1.51367189-.756836 2.66113279 0 2.4007162.9684245 3.6010742 2.9052735 3.6010742 1.8473307 0 2.7709961-1.2329101 2.7709961-3.6987304 0-2.335612-.9318034-3.50341799-2.7954102-3.50341799z"/><path d="m66.9677734 18.4692383v-3.125c.6347657.382487 1.2674968.6673177 1.8981934.8544922.6306966.1871744 1.2268066.2807617 1.7883301.2807617.6835937 0 1.2227376-.0935873 1.6174316-.2807617.394694-.1871745.592041-.4720052.592041-.8544922 0-.2441406-.0895182-.4475912-.2685547-.6103516-.1790364-.1627604-.4089355-.3051758-.6896972-.4272461s-.587972-.2319336-.9216309-.3295898c-.3336588-.0976563-.6551107-.2075196-.9643555-.3295899-.4964192-.1871744-.9338378-.3885905-1.3122558-.604248-.378418-.2156576-.6958008-.4659017-.9521484-.7507324-.2563477-.2848308-.4516602-.6144206-.5859375-.9887696-.1342774-.3743489-.2014161-.8178711-.2014161-1.33056637 0-.69986979.1525879-1.30208333.4577637-1.80664062.3051758-.5045573.7120768-.91756185 1.2207031-1.23901368.5086263-.32145182 1.0904948-.55745442 1.7456055-.70800781.6551107-.15055338 1.3366699-.22583008 2.0446777-.22583008.5533855 0 1.1149089.04272461 1.6845704.12817383.5696614.08544922 1.1311848.20955404 1.6845703.37231445v2.97851563c-.4882813-.28483073-1.0111491-.49845378-1.5686036-.64086914-.5574544-.14241537-1.1047363-.21362305-1.6418457-.21362305-.2522786 0-.4903157.02237956-.7141113.06713867-.2237956.04475912-.4211426.10986329-.592041.1953125-.1708984.08544922-.3051758.1953125-.402832.32958985-.0976563.13427734-.1464844.28686523-.1464844.45776367 0 .22786458.0732422.42317705.2197266.58593745.1464843.1627605.3377278.3031413.5737304.4211426s.4984538.2237956.7873535.3173828c.2888998.0935873.575765.189209.8605957.2868653.5126954.1790364.9765625.3743489 1.3916016.5859375.4150391.2115885.7710775.4597982 1.0681152.7446289.2970378.2848307.5249024.6184896.6835938 1.0009765.1586914.382487.2380371.8382162.2380371 1.3671875 0 .7405599-.1607259 1.3732911-.4821777 1.8981934-.3214519.5249023-.748698.9521484-1.2817383 1.2817383-.5330404.3295898-1.147461.5696614-1.8432617.7202148-.6958008.1505534-1.4180502.2258301-2.1667481.2258301-1.3753255 0-2.6489258-.2115885-3.8208008-.6347656z"/><path d="m84.7412109 19.1040039c-2.0833333 0-3.72111-.583903-4.91333-1.751709-1.1922201-1.167806-1.7883301-2.7526855-1.7883301-4.7546387 0-2.0670572.6184896-3.68448888 1.8554687-4.85229487 1.2369792-1.16780599 2.9093425-1.75170899 5.0170899-1.75170899 2.0751953 0 3.7027995.583903 4.8828125 1.75170899s1.7700195 2.71199547 1.7700195 4.63256837c0 2.0751953-.6083171 3.7150065-1.8249512 4.9194336s-2.8828938 1.8066406-4.9987793 1.8066406zm.0976563-10.15624999c-.9114583 0-1.6194662.3133138-2.1240234.9399414-.5045573.62662759-.756836 1.51367189-.756836 2.66113279 0 2.4007162.9684245 3.6010742 2.9052734 3.6010742 1.8473308 0 2.7709961-1.2329101 2.7709961-3.6987304 0-2.335612-.9318033-3.50341799-2.7954101-3.50341799z"/><path d="m101.843262 3.24707031c-.49642-.1953125-.972494-.29296875-1.428223-.29296875-1.2369791 0-1.8554687.67138672-1.8554687 2.01416016v1.3305664h2.8564457v2.84423829h-2.8564457v9.65576169h-3.8452148v-9.65576169h-2.0996094v-2.84423829h2.0996094v-1.55029296c0-1.42415365.4638672-2.57161459 1.3916015-3.44238282.9277344-.87076822 2.1891276-1.30615234 3.7841797-1.30615234.7812503 0 1.4322913.08138021 1.9531253.24414063z"/><path d="m111.303711 18.6523438c-.569662.3011067-1.428223.4516601-2.575684.4516601-2.718099 0-4.077148-1.4119466-4.077148-4.2358398v-5.72509769h-2.026367v-2.84423829h2.026367v-2.6977539l3.845215-1.09863281v3.79638671h2.807617v2.84423829h-2.807617v5.05371089c0 1.3020834.516764 1.953125 1.550293 1.953125.406901 0 .826009-.1180013 1.257324-.3540039z"/><path d="m131.25 18.7988281h-10.498047v-17.50488279h10.095215v3.21044922h-6.152344v3.89404297h5.725098v3.1982422h-5.725098v4.0039062h6.555176z"/><path d="m145.910645 18.7988281h-3.857422v-1.7211914h-.048828c-.878907 1.3509115-2.168783 2.0263672-3.869629 2.0263672-1.5625 0-2.819825-.5513509-3.771973-1.6540527-.952148-1.1027019-1.428223-2.6428223-1.428223-4.6203614 0-2.0670572.524903-3.72314449 1.574707-4.96826168 1.049805-1.24511718 2.425131-1.86767578 4.125977-1.86767578 1.611328 0 2.734375.57779948 3.369141 1.73339844h.048828v-7.43408203h3.857422zm-3.78418-6.0791015v-.9399414c0-.8138021-.236003-1.4892579-.708008-2.02636723-.472005-.53710938-1.086426-.80566406-1.843262-.80566406-.854492 0-1.52181.33569336-2.001953 1.00708007-.480143.67138672-.720215 1.59301762-.720215 2.76489262 0 1.0986328.231934 1.9449869.695801 2.5390625.463867.5940755 1.106771.8911132 1.928711.8911132.78125 0 1.41805-.3133138 1.9104-.9399414.492351-.6266276.738526-1.4567057.738526-2.4902343z"/><path d="m161.413574 17.3706055c0 2.3193359-.671386 4.115804-2.01416 5.3894043-1.342773 1.2736002-3.28776 1.9104004-5.834961 1.9104004-1.68457 0-3.019206-.2400717-4.003906-.7202149v-3.2470703c1.285807.7486979 2.583821 1.1230469 3.894043 1.1230469 1.302083 0 2.311198-.3438314 3.027344-1.0314942.716145-.6876627 1.074218-1.6215006 1.074218-2.8015136v-.9887696h-.048828c-.878906 1.3997396-2.17692 2.0996094-3.894043 2.0996094-1.595052 0-2.860514-.5615234-3.796386-1.6845703-.935873-1.1230469-1.403809-2.6285807-1.403809-4.5166016 0-2.1158854.520833-3.79638669 1.5625-5.04150388 1.041667-1.24511718 2.412923-1.86767578 4.113769-1.86767578 1.52181 0 2.661133.5859375 3.417969 1.7578125h.048828v-1.45263672h3.857422zm-3.808594-4.5776367v-.9887696c0-.789388-.233968-1.4628092-.701904-2.02026365-.467936-.55745443-1.076253-.83618164-1.824951-.83618164-.854492 0-1.525879.33365885-2.01416 1.00097656-.488281.66731773-.732422 1.60725913-.732422 2.81982423 0 1.0416667.231934 1.8656413.695801 2.4719238.463867.6062826 1.098633.9094238 1.904297.9094238.797526 0 1.442464-.3072102 1.934814-.9216308s.738525-1.4261882.738525-2.4353027z"/><path d="m175.866699 13.6474609h-8.154297c.130209 1.8147787 1.273601 2.722168 3.430176 2.722168 1.375326 0 2.583822-.3255208 3.625488-.9765625v2.7832031c-1.155599.6184896-2.657063.9277344-4.504394.9277344-2.018229 0-3.584798-.5594889-4.699707-1.6784668s-1.672363-2.6794433-1.672363-4.6813965c0-2.0751953.602213-3.7190755 1.80664-4.9316406s2.685547-1.81884766 4.44336-1.81884766c1.822916 0 3.232828.54117839 4.229736 1.62353516.996907 1.08235677 1.495361 2.5512695 1.495361 4.4067383zm-3.57666-2.368164c0-1.79036461-.724284-2.6855469-2.172851-2.6855469-.61849 0-1.153565.25634766-1.605225.76904297s-.726318 1.15152993-.823975 1.91650393z"/></g></g><g transform="translate(25 17)"><path d="m35.6796061 18.7268765c-.7065535.3695277-1.435258.6951675-2.1819731.9750562-2.3765702.8893507-4.8943269 1.3423068-7.4319573 1.3373383-9.7961066 0-18.32940138-6.738446-18.32940138-15.3856009.02546325-2.35855963 1.32947159-4.52624837 3.40131088-5.6536701-8.86038377.37263296-11.1375852 9.60564967-11.1375852 15.0150382 0 15.2945128 14.0958769 16.84508 17.1328355 16.84508 1.6375148 0 4.1072433-.4761421 5.5894944-.9440035l.271194-.0910881c5.7027334-1.9714353 10.5670427-5.8279795 13.7874196-10.9305668.0842564-.1326988.1289724-.2865134.1289724-.4438473 0-.4541982-.3738751-.8280732-.8280733-.8280732-.1407724 0-.2792677.0360212-.4022365.1043372z" fill="url(#a)" transform="translate(12.156115 20.718393)"/><path d="m35.6796061 18.7268765c-.7065535.3695277-1.435258.6951675-2.1819731.9750562-2.3765702.8893507-4.8943269 1.3423068-7.4319573 1.3373383-9.7961066 0-18.32940138-6.738446-18.32940138-15.3856009.02546325-2.35855963 1.32947159-4.52624837 3.40131088-5.6536701-8.86038377.37263296-11.1375852 9.60564967-11.1375852 15.0150382 0 15.2945128 14.0958769 16.84508 17.1328355 16.84508 1.6375148 0 4.1072433-.4761421 5.5894944-.9440035l.271194-.0910881c5.7027334-1.9714353 10.5670427-5.8279795 13.7874196-10.9305668.0842564-.1326988.1289724-.2865134.1289724-.4438473 0-.4541982-.3738751-.8280732-.8280733-.8280732-.1407724 0-.2792677.0360212-.4022365.1043372z" fill="url(#b)" transform="translate(12.156115 20.718393)"/><path d="m21.8663528 40.0124993c-1.8463964-1.1460534-3.4466479-2.6477642-4.7075964-4.4177708-2.0875727-2.8599579-3.2129242-6.3109532-3.2129242-9.8517944 0-6.3550481 3.6253046-12.1821996 9.3261749-14.990403.6458971-.3043169 1.7493047-.85498561 3.2170646-.82807323 2.0948183.01531936 4.0654256 1.01252653 5.3183004 2.69123803.83594 1.1160357 1.2969697 2.4686934 1.3166365 3.8629617 0-.0434738 5.0636679-16.4786576-16.561465-16.4786576-9.08810387 0-16.56146493 8.62438287-16.56146493 16.1909022-.03581417 4.002492.82062059 7.9629593 2.50699176 11.5930254 5.67727018 12.1132625 19.68226597 18.1236252 32.37352357 13.892999-4.3633249 1.3756366-9.1177075.7699011-12.9966096-1.6561465z" fill="url(#c)" transform="translate(.021693 9.965862)"/><path d="m21.8663528 40.0124993c-1.8463964-1.1460534-3.4466479-2.6477642-4.7075964-4.4177708-2.0875727-2.8599579-3.2129242-6.3109532-3.2129242-9.8517944 0-6.3550481 3.6253046-12.1821996 9.3261749-14.990403.6458971-.3043169 1.7493047-.85498561 3.2170646-.82807323 2.0948183.01531936 4.0654256 1.01252653 5.3183004 2.69123803.83594 1.1160357 1.2969697 2.4686934 1.3166365 3.8629617 0-.0434738 5.0636679-16.4786576-16.561465-16.4786576-9.08810387 0-16.56146493 8.62438287-16.56146493 16.1909022-.03581417 4.002492.82062059 7.9629593 2.50699176 11.5930254 5.67727018 12.1132625 19.68226597 18.1236252 32.37352357 13.892999-4.3633249 1.3756366-9.1177075.7699011-12.9966096-1.6561465z" fill="url(#d)" transform="translate(.021693 9.965862)"/><path d="m31.5350995 30.8167459c-.1676849.2173692-.6831605.5175458-.6831605 1.1717237 0 .5403177.3519312 1.0599337.9771265 1.4967423 2.9769233 2.0701832 8.5891897 1.796919 8.603681 1.796919 2.2055731-.0053825 4.3699495-.6024233 6.2664443-1.7286029 3.888425-2.2703698 6.2902514-6.4444801 6.2995672-10.9471283.0538248-4.6392804-1.6561465-7.7238533-2.3475876-9.0901741-4.3867181-8.58090904-13.8557356-13.5162256-24.1528265-13.5162256-14.3968815-.00144913-26.29587999 11.7302786-26.4983439 26.125711.09936879-7.5644492 7.61827388-13.6735595 16.561465-13.6735595.724564 0 4.8566495.0703862 8.6947691 2.0846744 3.3826792 1.7762171 5.1547559 3.9209268 6.3865149 6.0470049 1.2793731 2.2088853 1.5070933 4.9994922 1.5070933 6.1111805 0 1.1116884-.5672302 2.7595541-1.6147428 4.1217346z" fill="url(#e)"/><path d="m31.5350995 30.8167459c-.1676849.2173692-.6831605.5175458-.6831605 1.1717237 0 .5403177.3519312 1.0599337.9771265 1.4967423 2.9769233 2.0701832 8.5891897 1.796919 8.603681 1.796919 2.2055731-.0053825 4.3699495-.6024233 6.2664443-1.7286029 3.888425-2.2703698 6.2902514-6.4444801 6.2995672-10.9471283.0538248-4.6392804-1.6561465-7.7238533-2.3475876-9.0901741-4.3867181-8.58090904-13.8557356-13.5162256-24.1528265-13.5162256-14.3968815-.00144913-26.29587999 11.7302786-26.4983439 26.125711.09936879-7.5644492 7.61827388-13.6735595 16.561465-13.6735595.724564 0 4.8566495.0703862 8.6947691 2.0846744 3.3826792 1.7762171 5.1547559 3.9209268 6.3865149 6.0470049 1.2793731 2.2088853 1.5070933 4.9994922 1.5070933 6.1111805 0 1.1116884-.5672302 2.7595541-1.6147428 4.1217346z" fill="url(#f)"/></g></g></g></svg>