<svg viewBox="0 0 243 87" xmlns="http://www.w3.org/2000/svg" xmlns:xlink="http://www.w3.org/1999/xlink"><linearGradient id="a" x1="75.348774%" x2="19.314184%" y1="95.83573%" y2="-4.168289%"><stop offset="0" stop-color="#1e8e3e"/><stop offset="1" stop-color="#34a853"/></linearGradient><linearGradient id="b" x1="21.301678%" x2="59.783985%" y1="100.176733%" y2=".180967%"><stop offset="0" stop-color="#fcc934"/><stop offset="1" stop-color="#fbbc04"/></linearGradient><linearGradient id="c" x1=".000018%" x2="100%" y1="49.999873%" y2="49.999873%"><stop offset="0" stop-color="#d93025"/><stop offset="1" stop-color="#ea4335"/></linearGradient><g fill="none" fill-rule="evenodd"><rect fill="#1f2124" height="86" rx="20" stroke="#2b2e32" width="241.684211" x=".657895" y=".5"/><g fill-rule="nonzero"><g transform="translate(24.157895 17.376)"><path d="m26.5 39.75c7.3177857 0 13.25-5.9322143 13.25-13.25s-5.9322143-13.25-13.25-13.25-13.25 5.9322143-13.25 13.25 5.9322143 13.25 13.25 13.25z" fill="#fff"/><path d="m15.1445131 33.1249995-11.56478376-19.8749995c-2.34494838 4.0286479-3.57972934 8.5989083-3.57972934 13.2512057s1.23414496 9.2226419 3.57880502 13.2514581c2.34466855 4.0288162 5.71705348 7.3741589 9.77803968 9.6996345 4.0609862 2.3253915 8.6674059 3.5489628 13.3561663 3.5477017l11.5647668-19.8750005v-.0034497c-1.1713421 2.0155019-2.8569113 3.6893933-4.8871924 4.853309-2.0302811 1.1639158-4.3336182 1.7768795-6.6784224 1.777216-2.3448042.0003366-4.6483956-.6118698-6.6790159-1.7752807-2.0305355-1.1633268-3.7166983-2.8367134-4.888634-4.8517946z" fill="url(#a)"/><path d="m37.9767858 33.1266405-11.4719909 19.8733595c4.65118.0006728 9.2205109-1.2234707 13.2486118-3.5493433 4.0281009-2.3257884 7.3729766-5.6712758 9.6983143-9.700096 2.3252535-4.0289043 3.5490357-8.59904 3.548279-13.2509534-.0008416-4.6519135-1.2262221-9.2215443-3.5529897-13.2496073h-22.9441502l-.0028601.0017668c2.3260106-.0011779 4.611307.6103049 6.6260724 1.7727785 2.0147655 1.1625577 3.6879184 2.8351331 4.8512181 4.8497115 1.1632998 2.0144942 1.7756956 4.2998986 1.7756956 6.6261918-.0000841 2.3263774-.6126482 4.6116976-1.776032 6.6261919z" fill="url(#b)"/><path d="m26.1319016 36.8055556c5.8948723 0 10.673654-4.7787626 10.673654-10.6736112s-4.7787817-10.6736111-10.673654-10.6736111c-5.8948722 0-10.6735683 4.7787625-10.6735683 10.6736111s4.7786961 10.6736112 10.6735683 10.6736112z" fill="#1a73e8"/><path d="m26.5009454 13.2493607h22.818499c-2.3123522-4.02847866-5.6386591-7.37382025-9.6445332-9.69961723-4.0058742-2.32578856-8.5501817-3.54974347-13.17589-3.54974347-4.6257084 0-9.1697649 1.22525881-13.1753044 3.55162783-4.00562313 2.3263606-7.33143648 5.67219851-9.64316124 9.70092947l11.40921604 19.8708444.0029281.0015983c-1.1575983-2.0139028-1.767477-4.2986815-1.7682299-6.6247645-.000753-2.326083.6077035-4.6113663 1.7640469-6.6259421 1.1562598-2.0145758 2.8198316-3.6875284 4.8231451-4.8504438 2.0033972-1.1629994 4.2760111-1.7749937 6.5892836-1.7744889z" fill="url(#c)"/></g><g fill="#fff"><g transform="translate(91.452895 44.756)"><path d="m23.135 21.595c-1.2366667 1.4933333-2.695 2.6308333-4.375 3.4125s-3.5583333 1.1725-5.635 1.1725c-1.8666667 0-3.59916667-.3383333-5.1975-1.015s-2.98083333-1.5983333-4.1475-2.765-2.08833333-2.5491667-2.765-4.1475-1.015-3.3191667-1.015-5.1625.33833333-3.56416667 1.015-5.1625 1.59833333-2.98083333 2.765-4.1475 2.54916667-2.08833333 4.1475-2.765 3.3308333-1.015 5.1975-1.015c2.0066667 0 3.7741667.35 5.3025 1.05s2.8875 1.715 4.0775 3.045l-3.325 3.22c-.7466667-.86333333-1.6041667-1.55166667-2.5725-2.065s-2.1175-.77-3.4475-.77c-1.1666667 0-2.2633333.20416667-3.29.6125-1.02666667.40833333-1.91916667.98583333-2.6775 1.7325s-1.35916667 1.65083333-1.8025 2.7125c-.44333333 1.0616667-.665 2.2458333-.665 3.5525s.22166667 2.4908333.665 3.5525 1.04416667 1.9658333 1.8025 2.7125 1.65083333 1.3241667 2.6775 1.7325c1.0266667.4083333 2.1233333.6125 3.29.6125 1.4 0 2.6425-.2858333 3.7275-.8575s2.0475-1.3825 2.8875-2.4325z"/><path d="m26.005.56h4.585v7.035l-.28 3.115h.28c.49-.81666667 1.1958333-1.4875 2.1175-2.0125s1.9541667-.7875 3.0975-.7875c2.2166667 0 3.8558333.65333333 4.9175 1.96 1.0616667 1.3066667 1.5925 3.0916667 1.5925 5.355v10.395h-4.585v-9.835c0-1.19-.28-2.0941667-.84-2.7125s-1.3416667-.9275-2.345-.9275c-.63 0-1.19.1341667-1.68.4025s-.9041667.6358333-1.2425 1.1025-.595 1.0091667-.77 1.6275-.2625 1.2775-.2625 1.9775v8.365h-4.585z"/><path d="m46.095 8.47h4.305v2.38h.28c.21-.42.49-.805.84-1.155s.7408333-.65333333 1.1725-.91.8983333-.455 1.4-.595.9975-.21 1.4875-.21c.6066667 0 1.1258333.05833333 1.5575.175s.7991667.26833333 1.1025.455l-1.225 4.165c-.28-.14-.5891667-.2508333-.9275-.3325s-.7525-.1225-1.2425-.1225c-.63 0-1.2016667.1225-1.715.3675s-.9508333.5891667-1.3125 1.0325-.6416667.9625-.84 1.5575-.2975 1.2425-.2975 1.9425v8.4h-4.585z"/><path d="m67.41 7.91c1.33 0 2.5491667.2275 3.6575.6825s2.065 1.085 2.87 1.89 1.435 1.7675 1.89 2.8875.6825 2.345.6825 3.675-.2275 2.555-.6825 3.675-1.085 2.0825-1.89 2.8875-1.7616667 1.435-2.87 1.89-2.3275.6825-3.6575.6825-2.5491667-.2275-3.6575-.6825-2.065-1.085-2.87-1.89-1.435-1.7675-1.89-2.8875-.6825-2.345-.6825-3.675.2275-2.555.6825-3.675 1.085-2.0825 1.89-2.8875 1.7616667-1.435 2.87-1.89 2.3275-.6825 3.6575-.6825zm0 14.035c.5833333 0 1.1491667-.1108333 1.6975-.3325s1.0325-.5425 1.4525-.9625.7525-.9333333.9975-1.54.3675-1.295.3675-2.065-.1225-1.4583333-.3675-2.065-.5775-1.12-.9975-1.54-.9041667-.7408333-1.4525-.9625-1.1141667-.3325-1.6975-.3325c-.6066667 0-1.1783333.1108333-1.715.3325s-1.015.5425-1.435.9625-.7525.9333333-.9975 1.54-.3675 1.295-.3675 2.065.1225 1.4583333.3675 2.065.5775 1.12.9975 1.54.8983333.7408333 1.435.9625 1.1083333.3325 1.715.3325z"/><path d="m79.1 8.47h4.305v2.24h.28c.5366667-.84 1.2658333-1.51666667 2.1875-2.03s1.9425-.77 3.0625-.77c1.3066667 0 2.4033333.30333333 3.29.91s1.5166667 1.3533333 1.89 2.24c.5366667-.8633333 1.295-1.60416667 2.275-2.2225s2.17-.9275 3.57-.9275c1.05 0 1.96.16916667 2.73.5075s1.405833.81083333 1.9075 1.4175c.501667.6066667.880833 1.3358333 1.1375 2.1875s.385 1.7791667.385 2.7825v10.815h-4.585v-9.975c0-2.3333333-.956667-3.5-2.87-3.5-.6066667 0-1.1433333.1341667-1.61.4025s-.8575.63-1.1725 1.085-.56.9975-.735 1.6275-.2625 1.3066667-.2625 2.03v8.33h-4.585v-9.975c0-2.3333333-1.0033333-3.5-3.01-3.5-.5833333 0-1.0966667.1341667-1.54.4025s-.8166667.63-1.12 1.085-.5366667.9975-.7 1.6275-.245 1.3066667-.245 2.03v8.33h-4.585z"/><path d="m126.14 21.49c-.793333 1.4-1.860833 2.5316667-3.2025 3.395s-2.980833 1.295-4.9175 1.295c-1.306667 0-2.514167-.2275-3.6225-.6825s-2.070833-1.0908333-2.8875-1.9075-1.4525-1.7791667-1.9075-2.8875-.6825-2.3275-.6825-3.6575c0-1.2366667.221667-2.4091667.665-3.5175s1.061667-2.0766667 1.855-2.905c.793333-.82833333 1.7325-1.4875 2.8175-1.9775s2.280833-.735 3.5875-.735c1.376667 0 2.601667.2275 3.675.6825s1.971667 1.085 2.695 1.89 1.271667 1.7558333 1.645 2.8525.56 2.2866667.56 3.57v.42c-.023333.14-.035.2683333-.035.385-.023333.1166667-.035.245-.035.385h-12.915c.093333.7.285833 1.3008333.5775 1.8025s.653333.9216667 1.085 1.26.904167.5833333 1.4175.735 1.038333.2275 1.575.2275c1.05 0 1.919167-.2391667 2.6075-.7175s1.230833-1.0791667 1.6275-1.8025zm-4.165-6.65c-.023333-.3033333-.1225-.6416667-.2975-1.015s-.431667-.7233333-.77-1.05-.758333-.595-1.26-.805-1.1025-.315-1.8025-.315c-.98 0-1.843333.28-2.59.84s-1.271667 1.3416667-1.575 2.345z"/></g><g transform="translate(91.584 18.072)"><path d="m-0 15.928v-15.752h4.818c2.40533333 0 4.33766667.726 5.797 2.178 1.4593333 1.452 2.189 3.35133333 2.189 5.698 0 2.3613333-.7296667 4.2643333-2.189 5.709-1.45933333 1.4446667-3.39166667 2.167-5.797 2.167zm2.024-13.816v11.88h2.794c1.83333333 0 3.278-.5243333 4.334-1.573s1.584-2.50433333 1.584-4.367c0-1.848-.528-3.3-1.584-4.356s-2.50066667-1.584-4.334-1.584z"/><path d="m13.904 10.538c0-1.65733333.5206667-3.02866667 1.562-4.114 1.056-1.08533333 2.3833333-1.628 3.982-1.628s2.9186667.54266667 3.96 1.628c1.056 1.08533333 1.584 2.45666667 1.584 4.114 0 1.672-.528 3.0433333-1.584 4.114-1.0413333 1.0853333-2.3613333 1.628-3.96 1.628s-2.926-.5426667-3.982-1.628c-1.0413333-1.0853333-1.562-2.4566667-1.562-4.114zm2.024 0c0 1.1586667.3373333 2.0973333 1.012 2.816s1.5106667 1.078 2.508 1.078 1.8333333-.3593333 2.508-1.078 1.012-1.6573333 1.012-2.816c0-1.144-.3373333-2.07533333-1.012-2.794-.6893333-.73333333-1.5253333-1.1-2.508-1.1s-1.8186667.36666667-2.508 1.1c-.6746667.71866667-1.012 1.65-1.012 2.794z"/><path d="m41.888 5.148-3.476 10.78h-2.068l-2.684-8.272-2.662 8.272h-2.046l-3.476-10.78h2.112l2.398 8.14h.022l2.662-8.14h2.09l2.662 8.14h.022l2.376-8.14z"/><path d="m43.208 5.148h1.936v1.496h.088c.308-.528.781-.968 1.419-1.32s1.3016667-.528 1.991-.528c1.32 0 2.3356667.37766667 3.047 1.133s1.067 1.82966667 1.067 3.223v6.776h-2.024v-6.644c-.044-1.76-.9313333-2.64-2.662-2.64-.8066667 0-1.4813333.32633333-2.024.979s-.814 1.43366667-.814 2.343v5.962h-2.024z"/><path d="m57.156.176v15.752h-2.024v-15.752z"/><path d="m58.894 10.538c0-1.65733333.5206667-3.02866667 1.562-4.114 1.056-1.08533333 2.3833333-1.628 3.982-1.628s2.9186667.54266667 3.96 1.628c1.056 1.08533333 1.584 2.45666667 1.584 4.114 0 1.672-.528 3.0433333-1.584 4.114-1.0413333 1.0853333-2.3613333 1.628-3.96 1.628s-2.926-.5426667-3.982-1.628c-1.0413333-1.0853333-1.562-2.4566667-1.562-4.114zm2.024 0c0 1.1586667.3373333 2.0973333 1.012 2.816s1.5106667 1.078 2.508 1.078 1.8333333-.3593333 2.508-1.078 1.012-1.6573333 1.012-2.816c0-1.144-.3373333-2.07533333-1.012-2.794-.6893333-.73333333-1.5253333-1.1-2.508-1.1s-1.8186667.36666667-2.508 1.1c-.6746667.71866667-1.012 1.65-1.012 2.794z"/><path d="m73.304 12.628c0 .528.2236667.968.671 1.32s.9716667.528 1.573.528c.8506667 0 1.6096667-.3153333 2.277-.946s1.001-1.3713333 1.001-2.222c-.6306667-.4986667-1.5106667-.748-2.64-.748-.8213333 0-1.507.198-2.057.594s-.825.8873333-.825 1.474zm2.618-7.832c1.496 0 2.6766667.39966667 3.542 1.199s1.298 1.89566667 1.298 3.289v6.644h-1.936v-1.496h-.088c-.836 1.232-1.9506667 1.848-3.344 1.848-1.188 0-2.1816667-.352-2.981-1.056s-1.199-1.584-1.199-2.64c0-1.1146667.4216667-2.002 1.265-2.662s1.969-.99 3.377-.99c1.2026667 0 2.1926667.22 2.97.66v-.462c0-.704-.2786667-1.30166667-.836-1.793s-1.21-.737-1.958-.737c-1.1293333 0-2.024.47666667-2.684 1.43l-1.782-1.122c.9826667-1.408 2.4346667-2.112 4.356-2.112z"/><path d="m87.78 14.432c.9973333 0 1.8113333-.3593333 2.442-1.078.66-.7186667.99-1.6573333.99-2.816 0-1.12933333-.33-2.06066667-.99-2.794-.6453333-.73333333-1.4593333-1.1-2.442-1.1-.968 0-1.782.36666667-2.442 1.1s-.99 1.66466667-.99 2.794c0 1.144.33 2.0753333.99 2.794.66.7333333 1.474 1.1 2.442 1.1zm-.33 1.848c-1.408 0-2.618-.5573333-3.63-1.672-.9973333-1.1293333-1.496-2.486-1.496-4.07s.4986667-2.94066667 1.496-4.07c1.012-1.11466667 2.222-1.672 3.63-1.672.792 0 1.5143333.16866667 2.167.506s1.155.78466667 1.507 1.342h.088l-.088-1.496v-4.972h2.024v15.752h-1.936v-1.496h-.088c-.352.5573333-.8543333 1.0046667-1.507 1.342s-1.375.506-2.167.506z"/><path d="m104.984 0c.733333 0 1.334667.12466667 1.804.374l-.55 1.782c-.352-.176-.748-.264-1.188-.264-.498667 0-.905667.17233333-1.221.517s-.473.803-.473 1.375v1.364h2.816v1.848h-2.816v8.932h-2.024v-8.932h-2.024v-1.848h2.024v-1.562c0-1.07066667.341-1.936 1.023-2.596s1.558333-.99 2.629-.99z"/><path d="m106.832 10.538c0-1.65733333.520667-3.02866667 1.562-4.114 1.056-1.08533333 2.383333-1.628 3.982-1.628s2.918667.54266667 3.96 1.628c1.056 1.08533333 1.584 2.45666667 1.584 4.114 0 1.672-.528 3.0433333-1.584 4.114-1.041333 1.0853333-2.361333 1.628-3.96 1.628s-2.926-.5426667-3.982-1.628c-1.041333-1.0853333-1.562-2.4566667-1.562-4.114zm2.024 0c0 1.1586667.337333 2.0973333 1.012 2.816s1.510667 1.078 2.508 1.078 1.833333-.3593333 2.508-1.078 1.012-1.6573333 1.012-2.816c0-1.144-.337333-2.07533333-1.012-2.794-.689333-.73333333-1.525333-1.1-2.508-1.1s-1.818667.36666667-2.508 1.1c-.674667.71866667-1.012 1.65-1.012 2.794z"/><path d="m121.572 15.928h-2.024v-10.78h1.936v1.76h.088c.205333-.572.627-1.05966667 1.265-1.463s1.265-.605 1.881-.605c.586667 0 1.085333.088 1.496.264l-.616 1.958c-.249333-.10266667-.645333-.154-1.188-.154-.762667 0-1.426333.308-1.991.924s-.847 1.33466667-.847 2.156z"/></g></g></g></g></svg>